<svg width="37" height="37" viewBox="0 0 37 37" fill="none" xmlns="http://www.w3.org/2000/svg">
<path d="M24.341 18.4663C24.341 21.7111 21.6165 24.3417 18.2558 24.3417C14.895 24.3417 12.1705 21.7111 12.1705 18.4663C12.1705 15.2214 14.895 12.5908 18.2558 12.5908C21.6165 12.5908 24.341 15.2214 24.341 18.4663ZM24.341 18.4663V20.6695C24.341 22.6976 26.0438 24.3417 28.1443 24.3417C30.2448 24.3417 31.9476 22.6976 31.9476 20.6695V18.4663C31.9476 11.1652 25.8176 5.24658 18.2558 5.24658C10.694 5.24658 4.56396 11.1652 4.56396 18.4663C4.56396 25.7673 10.694 31.6859 18.2558 31.6859H24.341" stroke="white" stroke-width="3" stroke-linecap="round" stroke-linejoin="round"/>
</svg>
