<svg width="37" height="36" viewBox="0 0 37 36" fill="none" xmlns="http://www.w3.org/2000/svg">
<path fill-rule="evenodd" clip-rule="evenodd" d="M18.5761 0C28.6587 0 36.8318 8.09032 36.8318 18.0721C36.8318 26.055 31.607 32.827 24.3576 35.2189C23.4321 35.3969 23.1035 34.8326 23.1035 34.3514C23.1035 33.7556 23.1254 31.8097 23.1254 29.3914C23.1254 27.7063 22.5412 26.6065 21.8858 26.046C25.9514 25.5983 30.2232 24.07 30.2232 17.1288C30.2232 15.1546 29.5149 13.5437 28.3429 12.2781C28.5327 11.8216 29.1589 9.98341 28.164 7.49459C28.164 7.49459 26.6341 7.01034 23.1491 9.34758C21.6905 8.94747 20.1278 8.74615 18.5761 8.7391C17.0243 8.74615 15.4635 8.94747 14.0066 9.34758C10.518 7.01034 8.98449 7.49459 8.98449 7.49459C7.9932 9.98341 8.61938 11.8216 8.80741 12.2781C7.64087 13.5437 6.92707 15.1546 6.92707 17.1288C6.92707 24.0524 11.1898 25.6041 15.2444 26.0607C14.7223 26.5119 14.2494 27.3079 14.0851 28.4765C13.0446 28.9383 10.4011 29.7376 8.77271 26.9755C8.77271 26.9755 7.80699 25.2391 5.97412 25.1122C5.97412 25.1122 4.19418 25.0894 5.84997 26.2104C5.84997 26.2104 7.04573 26.7656 7.87636 28.8543C7.87636 28.8543 8.94798 32.0799 14.0267 30.9871C14.0359 32.4976 14.0523 33.9213 14.0523 34.3514C14.0523 34.829 13.7164 35.3881 12.8054 35.2206C5.55058 32.8323 0.320312 26.0567 0.320312 18.0721C0.320312 8.09032 8.49523 0 18.5761 0Z" fill="white"/>
</svg>
