<svg width="42" height="41" viewBox="0 0 42 41" fill="none" xmlns="http://www.w3.org/2000/svg">
<path d="M39.1927 20.302C39.1927 10.549 31.004 2.6427 20.9028 2.6427C10.8015 2.6427 2.61279 10.549 2.61279 20.302C2.61279 30.0549 10.8015 37.9613 20.9028 37.9613C31.004 37.9613 39.1927 30.0549 39.1927 20.302Z" fill="white"/>
<path d="M16.4852 12.3455C16.4852 13.5243 15.4269 14.4799 14.1215 14.4799C12.8161 14.4799 11.7578 13.5243 11.7578 12.3455C11.7578 11.1667 12.8161 10.2111 14.1215 10.2111C15.4269 10.2111 16.4852 11.1667 16.4852 12.3455Z" fill="#222222"/>
<path d="M12.0811 16.0488H16.1215V27.8703H12.0811V16.0488Z" fill="#222222"/>
<path d="M22.6269 16.0488H18.5864V27.8703H22.6269C22.6269 27.8703 22.6269 24.1487 22.6269 21.8219C22.6269 20.4251 23.1209 19.0224 25.0916 19.0224C27.3188 19.0224 27.3055 20.8501 27.2951 22.2661C27.2815 24.1169 27.3139 26.0058 27.3139 27.8703H31.3544V21.6311C31.3202 17.6473 30.245 15.8116 26.7078 15.8116C24.6072 15.8116 23.3051 16.7325 22.6269 17.5655V16.0488Z" fill="#222222"/>
</svg>
