<svg width="30" height="30" viewBox="0 0 30 30" fill="none" xmlns="http://www.w3.org/2000/svg">
<path d="M21.25 15C21.25 18.4517 18.4517 21.25 15 21.25C11.5482 21.25 8.75 18.4517 8.75 15C8.75 11.5482 11.5482 8.75 15 8.75C18.4517 8.75 21.25 11.5482 21.25 15Z" fill="#E1E1E1"/>
<path fill-rule="evenodd" clip-rule="evenodd" d="M15 1.5625C15.5177 1.5625 15.9375 1.98224 15.9375 2.5V5C15.9375 5.51776 15.5177 5.9375 15 5.9375C14.4823 5.9375 14.0625 5.51776 14.0625 5V2.5C14.0625 1.98224 14.4823 1.5625 15 1.5625ZM4.58581 4.64511C4.93519 4.26299 5.52819 4.23644 5.91031 4.58581L8.68783 7.1253C9.06995 7.47468 9.0965 8.06766 8.74713 8.44979C8.39775 8.83191 7.80475 8.85846 7.42262 8.50909L4.64511 5.96961C4.26299 5.62024 4.23644 5.02724 4.58581 4.64511ZM25.4142 4.64511C25.7636 5.02724 25.737 5.62024 25.3549 5.96961L22.5774 8.50909C22.1952 8.85846 21.6023 8.83191 21.2529 8.44979C20.9035 8.06766 20.93 7.47468 21.3121 7.1253L24.0897 4.58581C24.4719 4.23644 25.0648 4.26299 25.4142 4.64511ZM1.5625 15C1.5625 14.4823 1.98224 14.0625 2.5 14.0625H5C5.51776 14.0625 5.9375 14.4823 5.9375 15C5.9375 15.5177 5.51776 15.9375 5 15.9375H2.5C1.98224 15.9375 1.5625 15.5177 1.5625 15ZM24.0625 15C24.0625 14.4823 24.4823 14.0625 25 14.0625H27.5C28.0177 14.0625 28.4375 14.4823 28.4375 15C28.4375 15.5177 28.0177 15.9375 27.5 15.9375H25C24.4823 15.9375 24.0625 15.5177 24.0625 15ZM21.2819 21.2815C21.648 20.9154 22.2416 20.9154 22.6077 21.2815L25.3853 24.0594C25.7514 24.4255 25.7512 25.0191 25.3851 25.3853C25.019 25.7514 24.4254 25.7512 24.0594 25.3851L21.2819 22.6073C20.9157 22.2411 20.9157 21.6476 21.2819 21.2815ZM8.71834 21.2816C9.08445 21.6477 9.08445 22.2414 8.71834 22.6075L5.94055 25.3853C5.57444 25.7514 4.98085 25.7514 4.61473 25.3853C4.24861 25.0191 4.24861 24.4255 4.61473 24.0595L7.39251 21.2816C7.75863 20.9155 8.35221 20.9155 8.71834 21.2816ZM15 24.0625C15.5177 24.0625 15.9375 24.4823 15.9375 25V27.5C15.9375 28.0177 15.5177 28.4375 15 28.4375C14.4823 28.4375 14.0625 28.0177 14.0625 27.5V25C14.0625 24.4823 14.4823 24.0625 15 24.0625Z" fill="#E1E1E1"/>
</svg>
